<svg width="158" height="24" viewBox="0 0 158 24" fill="none" xmlns="http://www.w3.org/2000/svg">
<path d="M0 23.6667V0.333333H8.78589C13.7259 0.333333 17.2402 3.66667 17.2402 8.26667C17.2402 12.8667 13.7259 16.2667 8.78589 16.2667H6.29932V23.6667H0ZM8.78589 10.2C10.0126 10.2 10.9409 9.4 10.9409 8.26667C10.9409 7.16667 10.0126 6.4 8.78589 6.4H6.29932V10.2H8.78589Z" fill="white"/>
<path d="M19.135 23.6667V0.333333H28.385C32.5956 0.333333 35.9774 3.53333 35.9774 7.53333C35.9774 10.1667 34.9164 12.2 32.894 13.2C36.5741 15.1 37.6682 19 37.6682 23.6667H31.3689V23.1667C31.3689 18.7333 29.0813 15.4 25.8321 15.4H25.4343V23.6667H19.135ZM27.7551 9.96667C28.7497 9.96667 29.6117 9.16667 29.6117 8.2C29.6117 7.23333 28.7497 6.43333 27.7551 6.43333H25.4343V9.96667H27.7551Z" fill="white"/>
<path d="M49.6773 24C42.8807 24 37.7418 18.9 37.7418 12.0333C37.7418 5.13333 42.8144 0 49.6773 0C56.5071 0 61.6129 5.16667 61.6129 12.0333C61.6129 18.9 56.5071 24 49.6773 24ZM49.6773 17.8333C52.9265 17.8333 55.1478 15.2 55.1478 12.0333C55.1478 8.86667 52.9265 6.16667 49.6773 6.16667C46.4282 6.16667 44.2069 8.86667 44.2069 12.0333C44.2069 15.2 46.4282 17.8333 49.6773 17.8333Z" fill="white"/>
<path d="M63.6861 23.6667V0.333333H68.0624C72.6709 0.333333 76.1852 1.83333 78.5392 4.8C80.8932 1.83333 84.4075 0.333333 89.016 0.333333H93.3923V23.6667H87.093V6.4C83.5787 6.4 81.5894 8.63333 81.5894 13.3V23.6667H75.489V13.3C75.489 8.63333 73.4998 6.4 69.9854 6.4V23.6667H63.6861Z" fill="white"/>
<path d="M95.9014 23.6667V0.333333H104.687C109.627 0.333333 113.142 3.66667 113.142 8.26667C113.142 12.8667 109.627 16.2667 104.687 16.2667H102.201V23.6667H95.9014ZM104.687 10.2C105.914 10.2 106.842 9.4 106.842 8.26667C106.842 7.16667 105.914 6.4 104.687 6.4H102.201V10.2H104.687Z" fill="white"/>
<path d="M120.639 23.6667V6.4H114.34V0.333333H133.238V6.4H126.939V23.6667H120.639Z" fill="white"/>
<path d="M146.064 24C139.268 24 134.129 18.9 134.129 12.0333C134.129 5.13333 139.202 0 146.064 0C152.894 0 158 5.16667 158 12.0333C158 18.9 152.894 24 146.064 24ZM146.064 17.8333C149.314 17.8333 151.535 15.2 151.535 12.0333C151.535 8.86667 149.314 6.16667 146.064 6.16667C142.815 6.16667 140.594 8.86667 140.594 12.0333C140.594 15.2 142.815 17.8333 146.064 17.8333Z" fill="white"/>
</svg>
