<svg width="101" height="24" viewBox="0 0 101 24" fill="none" xmlns="http://www.w3.org/2000/svg">
<path d="M99.193 4.875V2.875H90.5514V4.6875C90.5514 4.7775 90.3953 4.82375 90.2883 4.82375C90.0135 4.82375 88.7469 4.64 88.6231 4.75625C88.3561 5.45375 88.6102 6.05 88.6231 6.6825C88.6979 10.7438 88.5573 14.815 88.6167 18.8762H90.2947V21.125H98.9363V18.75H101V4.875H99.193ZM91.9701 17.505L91.9624 6.125L97.5176 6.12125L97.5266 17.5012L91.9701 17.505Z" fill="white"/>
<path d="M83.264 2.75C82.4966 2.75 82.6372 4.3475 82.8126 4.87375C82.387 4.84375 80.6225 4.66 80.3736 4.88625C80.1647 5.07375 80.2562 7.20375 80.233 7.625H77.3955V4.875H75.2028L75.0738 2.875H71.5914L71.4624 21.125H75.0738V8.75H76.8795V12.125H80.6199V8.75H82.8126L82.6836 21.125H86.2306L86.1661 2.75H83.264Z" fill="white"/>
<path d="M69.5213 2.75625C68.3991 2.7125 67.286 2.75625 66.1742 2.875V8.3125C66.1742 8.34375 66.3264 8.4125 66.249 8.50125C65.9653 8.90125 62.3603 8.34625 61.6587 8.50125L61.531 2.87375C60.8229 2.855 60.107 2.90125 59.3977 2.88C58.8624 2.865 58.2626 2.425 58.1711 3.18125C58.0124 4.49375 58.2046 6.30625 58.1827 7.6925C58.1724 8.40125 57.9363 9.095 58.1788 9.87375C58.6947 9.85 59.2455 9.97375 59.7253 9.75V12H62.0469L62.1746 21.1262L65.6583 21V12.125H67.98L67.8497 9.87375L69.7857 10L69.5213 2.75625Z" fill="white"/>
<path d="M54.1714 15.6725C54.1147 14.5075 54.3326 13.2463 54.0502 12.1263L56.1151 11.9975L56.2441 4.74875L54.499 4.6375L54.5661 2.875H43.8608L43.9898 21.125H47.6012V14.25L49.6649 14V16L52.6314 15.875V21.125H56.3718V16.0012C56.0223 15.9325 54.2294 15.8812 54.1714 15.6725ZM52.5089 10.875H47.4722V5.99375H52.5089V10.875Z" fill="white"/>
<path d="M41.9274 12.1263L41.801 4.70875C41.7068 4.50375 40.4003 4.48 40.1204 4.5V2.625H29.673L29.931 21.125H33.5424L33.4121 14.3737L40.0378 14.2325C40.2081 14.1788 40.1952 14.1375 40.1952 13.995C40.1978 13.6962 39.9991 12.4175 40.1346 12.2638C40.7163 12.09 41.3238 12.115 41.9274 12.1263ZM38.3147 11.0013L33.4121 11.1263L33.2832 6.24875L38.3147 6.125C38.3069 7.7625 38.1199 9.36625 38.3147 11.0013Z" fill="white"/>
<path d="M0 0V24H25.5521V0H0ZM22.654 21.1313C22.5585 21.255 22.4025 21.24 22.2632 21.2563C18.0945 21.7325 13.0876 20.7825 8.84929 21.3813L2.97298 21.3762L3.10196 2.74875L20.3878 2.87375L20.2575 5.5H22.7081L22.654 21.1313Z" fill="white"/>
<path d="M17.162 8.375C17.1272 8.28375 17.291 8.225 17.291 8.1875V5.75L5.93951 5.62375L5.81182 18.875L9.29426 18.6238C9.3407 18.4925 9.16529 18.3538 9.16529 18.3125V16.375L17.1001 16.3713C17.4187 16.1675 17.162 16.1062 17.162 16.0625V14H19.1612C19.2347 14 19.7416 13.7437 19.7416 13.6875V8.375H17.162ZM16.6461 13.3813H9.16529V8.61875H16.6461V13.3813Z" fill="white"/>
</svg>
